<svg xmlns="http://www.w3.org/2000/svg" fill="none" viewBox="0 0 128 128">
    <rect height="112" width="2" x="8" y="8" />
    <rect height="112" width="1" x="11" y="8" />
    <rect height="112" width="1" x="14" y="8" />
    <rect height="112" width="1" x="19" y="8" />
    <rect height="112" width="1" x="24" y="8" />
    <rect height="112" width="2" x="27" y="8" />
    <rect height="112" width="1" x="30" y="8" />
    <rect height="112" width="1" x="33" y="8" />
    <rect height="112" width="2" x="35" y="8" />
    <rect height="112" width="2" x="41" y="8" />
    <rect height="112" width="1" x="47" y="8" />
    <rect height="112" width="1" x="49" y="8" />
    <rect height="112" width="1" x="52" y="8" />
    <rect height="112" width="4" x="54" y="8" />
    <rect height="112" width="1" x="60" y="8" />
    <rect height="112" width="1" x="63" y="8" />
    <rect height="112" width="1" x="68" y="8" />
    <rect height="112" width="2" x="70" y="8" />
    <rect height="112" width="1" x="74" y="8" />
    <rect height="112" width="1" x="77" y="8" />
    <rect height="112" width="2" x="79" y="8" />
    <rect height="112" width="2" x="85" y="8" />
    <rect height="112" width="1" x="91" y="8" />
    <rect height="112" width="1" x="93" y="8" />
    <rect height="112" width="1" x="96" y="8" />
    <rect height="112" width="4" x="100" y="8" />
    <rect height="112" width="1" x="105" y="8" />
    <rect height="112" width="2" x="107" y="8" />
    <rect height="112" width="3" x="112" y="8" />
    <rect height="112" width="1" x="116" y="8" />
    <rect height="112" width="2" x="118" y="8" />
    <style>
        rect { fill: #000; }
        @media (prefers-color-scheme: dark) {
            rect { fill: #FFF; }
        }
    </style>
</svg>